<svg width="70" height="70" viewBox="0 0 70 70" fill="none" xmlns="http://www.w3.org/2000/svg">
<path d="M31.2083 19.542L44.6249 32.9587C44.9166 33.2503 45.1227 33.5663 45.2433 33.9066C45.3638 34.2469 45.4251 34.6114 45.427 35.0003C45.427 35.3892 45.3658 35.7538 45.2433 36.0941C45.1208 36.4344 44.9146 36.7503 44.6249 37.042L31.2083 50.4587C30.6735 50.9934 29.993 51.2607 29.1666 51.2607C28.3402 51.2607 27.6596 50.9934 27.1249 50.4587C26.5902 49.9239 26.3228 49.2434 26.3228 48.417C26.3228 47.5906 26.5902 46.91 27.1249 46.3753L38.4999 35.0003L27.1249 23.6253C26.5902 23.0906 26.3228 22.41 26.3228 21.5837C26.3228 20.7573 26.5902 20.0767 27.1249 19.542C27.6596 19.0073 28.3402 18.7399 29.1666 18.7399C29.993 18.7399 30.6735 19.0073 31.2083 19.542Z" fill="white" fill-opacity="0.7"/>
</svg>
