<svg width="70" height="70" viewBox="0 0 70 70" fill="none" xmlns="http://www.w3.org/2000/svg">
<path d="M38.7917 50.458L25.375 37.0413C25.0834 36.7497 24.8772 36.4337 24.7567 36.0934C24.6361 35.7531 24.5749 35.3886 24.5729 34.9997C24.5729 34.6108 24.6342 34.2462 24.7567 33.9059C24.8792 33.5656 25.0853 33.2497 25.375 32.958L38.7917 19.5413C39.3264 19.0066 40.007 18.7393 40.8334 18.7393C41.6597 18.7393 42.3403 19.0066 42.875 19.5413C43.4097 20.0761 43.6771 20.7566 43.6771 21.583C43.6771 22.4094 43.4097 23.09 42.875 23.6247L31.5 34.9997L42.875 46.3747C43.4097 46.9094 43.6771 47.59 43.6771 48.4163C43.6771 49.2427 43.4097 49.9233 42.875 50.458C42.3403 50.9927 41.6597 51.2601 40.8334 51.2601C40.007 51.2601 39.3264 50.9927 38.7917 50.458Z" fill="white" fill-opacity="0.7"/>
</svg>
